<svg width="24" height="24" viewBox="0 0 24 24" fill="none" xmlns="http://www.w3.org/2000/svg">
<path d="M18.6114 21.3782H5.5544C4.72539 21.3782 4 20.6528 4 19.8238V3.5544C4 2.72539 4.72539 2 5.5544 2H18.6114C19.4404 2 20.1658 2.72539 20.1658 3.5544V19.8238C20.1658 20.7564 19.4404 21.3782 18.6114 21.3782Z" stroke="#969696" stroke-width="2.08" stroke-miterlimit="10"/>
<path d="M9.28493 8.83949C9.28493 9.12565 9.05295 9.35762 8.7668 9.35762C8.48064 9.35762 8.24866 9.12565 8.24866 8.83949C8.24866 8.55333 8.48064 8.32136 8.7668 8.32136C9.05295 8.32136 9.28493 8.55333 9.28493 8.83949Z" fill="#969696" stroke="#969696" stroke-width="1.03627"/>
<path d="M11.6684 8.83936H15.9171" stroke="#969696" stroke-width="2.07254" stroke-miterlimit="10"/>
<path d="M9.28493 14.5387C9.28493 14.8249 9.05295 15.0568 8.7668 15.0568C8.48064 15.0568 8.24866 14.8249 8.24866 14.5387C8.24866 14.2526 8.48064 14.0206 8.7668 14.0206C9.05295 14.0206 9.28493 14.2526 9.28493 14.5387Z" fill="#969696" stroke="#969696" stroke-width="1.03627"/>
<path d="M11.6684 14.5388H15.9171" stroke="#969696" stroke-width="2.07254" stroke-miterlimit="10"/>
</svg>
